<svg width="73" height="64" viewBox="0 0 73 64" fill="none" xmlns="http://www.w3.org/2000/svg">
<rect width="73" height="64" fill="#1E1E1E"/>
<g clip-path="url(#clip0_0_1)">
<rect width="1442" height="6471" transform="translate(-37 -19)" />
<g filter="url(#filter0_d_0_1)">
<rect x="-37" y="-19" width="1442" height="98" fill="white"/>
</g>
<path d="M48.1806 6.71618L19.5105 6.34737C18.6341 6.13019 18.0074 3.77621 21.6445 2.55386C25.2816 1.3315 28.3868 0.56929 29.4847 0.340976C32.4124 -0.267835 34.964 0.0711057 37.6083 0.340975C41.2689 0.714565 49.1134 2.97536 49.1598 4.66136C49.1969 6.01017 48.6959 6.71618 48.1806 6.71618Z" fill="#630A10"/>
<path d="M23.2486 57.1884L51.9115 56.3732C52.7943 56.554 53.4959 58.8806 49.9004 60.2523C46.3048 61.624 43.2261 62.514 42.1362 62.7874C39.2299 63.5167 36.6692 63.2834 34.018 63.1229C30.3478 62.9007 22.4361 60.9653 22.3358 59.2823C22.2555 57.9359 22.7336 57.2097 23.2486 57.1884Z" fill="#630A10"/>
<path d="M30.4788 9.2979L54.8815 7.98071C56.2732 7.98071 58.1592 9.56134 58.685 9.93016C59.118 10.176 60.0489 10.9418 60.3087 12.0377C60.6334 13.4075 60.4479 13.2495 60.4015 14.0398C60.3551 14.8301 59.6128 15.3043 59.1489 15.515C58.685 15.7258 54.0922 15.0409 52.1901 14.7247C50.2881 14.4086 46.3912 13.8817 42.2159 13.4602C38.0406 13.0387 30.4788 13.4602 25.9324 13.4602C21.386 13.4602 14.9839 14.8301 15.6334 13.1441C16.153 11.7953 16.6083 10.7732 17.2107 10.7732L30.4788 9.2979Z" fill="#911F27"/>
<path d="M14.3657 18.5392C31.7347 15.3779 55.4817 17.4201 64.5126 18.0523C67.4508 21.2838 71.845 26.4423 61.5435 25.2705C49.6197 23.9142 54.912 24.2821 45.5848 23.7426C37.6237 23.2821 40.0203 23.1103 32.7807 23.1103C26.0345 23.1103 25.595 23.0303 19.2368 23.4391C17.8099 23.5309 11.4132 23.9533 5.78065 23.9533C0.63369 23.9533 -7.34569 22.4907 14.3657 18.5392Z" fill="#FCF0C8"/>
<path d="M16.4069 38.5416C33.776 35.3803 57.5229 37.4225 66.5539 38.0548C69.492 41.2863 73.8863 46.4448 63.5848 45.273C51.6609 43.9166 56.9533 44.2846 47.626 43.745C39.6649 43.2845 42.0616 43.1128 34.8219 43.1128C28.0758 43.1128 27.6362 43.0327 21.278 43.4416C19.8512 43.5333 13.4544 43.9558 7.82191 43.9558C2.67495 43.9558 -5.30443 42.4932 16.4069 38.5416Z" fill="#911F27"/>
<path d="M16.0641 30.2455C34.5095 25.3561 48.2057 26.1261 63.4686 28.9713C68.9429 29.9917 78.1183 37.233 61.1546 35.1981L40.3712 32.705C18.4335 30.0734 -6.9926 36.3573 16.0641 30.2455Z" fill="#630A10"/>
<path d="M67.9674 49.4487C68.1158 47.1726 65.3076 46.6738 63.8849 46.709C48.6215 46.709 48.0325 46.7586 26.3906 48.5811L25.4725 48.6584L15.1272 49.7649C12.1082 50.2373 9.64946 50.8696 8.16842 51.2401C7.2127 51.4792 7.24059 51.4509 7.05502 51.8724C6.86945 52.2939 6.91584 52.5046 7.51894 52.9261C8.00141 53.2633 8.52409 53.2422 8.72512 53.1895H16.1443C23.1959 52.7137 22.8653 52.6732 29.6942 52.5046C36.5231 52.336 44.756 52.891 48.0189 53.1895C51.7612 53.8042 59.7839 54.9599 61.9365 54.6648C64.6272 54.296 63.8849 54.0326 66.1117 53.6637C68.3385 53.2949 67.7818 52.2939 67.9674 49.4487Z" fill=""/>
<path d="M20.7151 27.2601L20.4751 33.4701H17.6851L17.4751 31.4001C17.4551 31.0601 17.3551 30.8301 17.1751 30.7101C17.0151 30.5901 16.7351 30.5301 16.3351 30.5301H13.5751V44.6901C13.5751 45.0901 13.6251 45.3701 13.7251 45.5301C13.8451 45.6701 14.0851 45.7701 14.4451 45.8301L16.0951 46.1001V48.8601H6.73511V46.1001L8.38511 45.8301C8.74511 45.7701 8.97511 45.6701 9.07511 45.5301C9.19511 45.3701 9.25511 45.0901 9.25511 44.6901V30.5301H6.46511C6.06511 30.5301 5.78511 30.5901 5.62511 30.7101C5.46511 30.8301 5.37511 31.0601 5.35511 31.4001L5.14511 33.4701H2.35511L2.11511 27.2601H20.7151ZM46.6372 45.8601C47.0572 45.8601 47.3472 45.7801 47.5072 45.6201L46.9972 48.6201C46.8372 48.8001 46.6572 48.9301 46.4572 49.0101C46.2772 49.1101 45.9872 49.1601 45.5872 49.1601C43.9872 49.1601 42.1172 48.4201 39.9772 46.9401C38.0172 48.4401 35.9172 49.1901 33.6772 49.1901C32.3772 49.1901 31.2572 48.9501 30.3172 48.4701C29.3772 47.9701 28.6672 47.3001 28.1872 46.4601C27.7072 45.6001 27.4672 44.6501 27.4672 43.6101C27.4672 42.2301 27.8472 41.0501 28.6072 40.0701C29.3672 39.0901 30.3772 38.1401 31.6372 37.2201C30.7372 35.3801 30.2872 33.7801 30.2872 32.4201C30.2872 31.4001 30.5172 30.4801 30.9772 29.6601C31.4572 28.8201 32.1672 28.1601 33.1072 27.6801C34.0472 27.2001 35.1972 26.9601 36.5572 26.9601C37.6372 26.9601 38.6872 27.1201 39.7072 27.4401C40.7472 27.7601 41.6172 28.1001 42.3172 28.4601L41.7772 32.8401H39.1072L38.8072 30.4101C38.5272 30.2301 38.1772 30.0701 37.7572 29.9301C37.3372 29.7701 36.9072 29.6901 36.4672 29.6901C34.9272 29.6901 34.1572 30.5001 34.1572 32.1201C34.1572 34.3601 35.6572 37.1301 38.6572 40.4301C39.2372 41.0901 39.9172 41.7901 40.6972 42.5301C41.5972 41.4901 42.4672 40.2201 43.3072 38.7201L45.7672 39.8901C44.7472 41.6301 43.7472 43.0801 42.7672 44.2401C44.2472 45.3201 45.5372 45.8601 46.6372 45.8601ZM34.8772 45.8001C35.8172 45.8001 36.7572 45.5501 37.6972 45.0501C35.9972 43.5301 34.4672 41.7601 33.1072 39.7401C32.2072 40.5801 31.7572 41.5601 31.7572 42.6801C31.7572 43.6201 32.0272 44.3801 32.5672 44.9601C33.1272 45.5201 33.8972 45.8001 34.8772 45.8001ZM64.1582 49.1601C61.1382 49.1601 58.8182 48.2501 57.1982 46.4301C55.5782 44.6101 54.7682 42.0801 54.7682 38.8401C54.7682 36.4601 55.1982 34.3801 56.0582 32.6001C56.9382 30.8001 58.1782 29.4101 59.7782 28.4301C61.3982 27.4501 63.2782 26.9601 65.4182 26.9601C67.7582 26.9601 69.9782 27.5501 72.0782 28.7301L71.5982 34.5501H68.5682L67.8782 31.2501C67.5182 31.0701 67.0082 30.8901 66.3482 30.7101C65.7082 30.5301 65.0182 30.4401 64.2782 30.4401C62.4982 30.4401 61.2482 31.0001 60.5282 32.1201C59.8282 33.2201 59.4782 34.8901 59.4782 37.1301C59.4782 42.7501 61.4782 45.5601 65.4782 45.5601C67.0382 45.5601 68.3682 45.3401 69.4682 44.9001C70.5682 44.4601 71.1482 44.2301 71.2082 44.2101L72.1082 47.1801C69.3882 48.5001 66.7382 49.1601 64.1582 49.1601Z" fill="#FACE7F"/>
</g>
<defs>
<filter id="filter0_d_0_1" x="-53" y="-33" width="1474" height="130" filterUnits="userSpaceOnUse" color-interpolation-filters="sRGB">
<feFlood flood-opacity="0" result="BackgroundImageFix"/>
<feColorMatrix in="SourceAlpha" type="matrix" values="0 0 0 0 0 0 0 0 0 0 0 0 0 0 0 0 0 0 127 0" result="hardAlpha"/>
<feMorphology radius="3" operator="dilate" in="SourceAlpha" result="effect1_dropShadow_0_1"/>
<feOffset dy="2"/>
<feGaussianBlur stdDeviation="6.5"/>
<feComposite in2="hardAlpha" operator="out"/>
<feColorMatrix type="matrix" values="0 0 0 0 0.568627 0 0 0 0 0.121569 0 0 0 0 0.152941 0 0 0 0.25 0"/>
<feBlend mode="normal" in2="BackgroundImageFix" result="effect1_dropShadow_0_1"/>
<feBlend mode="normal" in="SourceGraphic" in2="effect1_dropShadow_0_1" result="shape"/>
</filter>
<clipPath id="clip0_0_1">
<rect width="1442" height="6471" fill="white" transform="translate(-37 -19)"/>
</clipPath>
</defs>
</svg>
